<?xml version="1.0" encoding="UTF-8"?><svg xmlns="http://www.w3.org/2000/svg" viewBox="0 0 267.35 44.39"><defs><style>.d{fill:#009a44;}</style></defs><g id="a"/><g id="b"><g id="c"><g><path class="d" d="M32.38,33.24c-2.17,0-3.94-1.1-3.94-4.06s2.76-11.08,2.76-12.34c0-.36-.16-.63-.51-.63-2.72,0-9.43,10.61-10.37,13.13-.2,.51-1.58,3.43-2.8,3.43-1.46,0-3.71-.04-3.71-1.26,0-1.14,5.92-15.42,5.92-19.17,0-.2-.08-.32-.24-.32-1.66,0-8.12,10.17-10.45,14.43-1.66,3.08-2.6,4.73-5.56,5.52-.95,.24-1.77,.36-2.29,.36-.87,0-1.18-.28-1.18-.67,0-.12,.04-.28,.08-.43C2.8,23.7,6.39,7.06,6.39,4.73c0-1.97-.99-1.81-.99-2.21,0-1.42,3.87-2.52,5.09-2.52,.16,0,.32,0,.43,.04,1.22,.24,1.58,1.81,1.58,3.04,0,3.47-3.31,12.97-3.31,12.97,0,.04,.04,.08,.08,.08,.16,0,.39-.16,.67-.55,1.93-3.08,8.75-12.93,13.53-12.93,1.85,0,2.45,1.5,2.45,3.19,0,4.57-2.84,10.33-2.84,10.77,0,.12,0,.2,.04,.2s.12-.04,.16-.08c1.85-1.93,8.68-9.9,12.34-9.9,1.34,0,2.37,.47,2.37,2.21,0,3.71-4.65,15.74-4.65,17.94,0,.83,.36,1.3,1.22,1.3,1.7,0,3.23-1.97,4.3-1.97,.79,0,1.3,.75,1.3,1.66,0,2.17-4.22,5.28-7.77,5.28Z"/><path class="d" d="M44.66,31.67c-1.55,0-3.02-.79-3.02-2.84,0-1.39,.5-4.47,1.26-5.63,.53-.29,2.13-.74,2.71-.74,.37,0,.55,.24,.55,.47,0,.42-1.1,2.79-1.1,3.86,0,.97,.45,1.84,1.52,1.84s.87-.55,1.63-.55c.34,0,.74,.11,.87,.6,0,1.6-2.37,2.97-4.42,2.97Zm-.18-11.75s-.97,0-.97-.6c.08-.47,.53-1.84,.92-2.63,.26-.5,.79-.66,1.39-.66,.55,0,1.66,.08,1.66,.79,0,.66-.39,2.94-3,3.1Z"/><path class="d" d="M63.88,31.43c-1.47,0-1.55-1.18-1.55-2.5,0-.34-.13-.53-.45-.53-1.84,0-3,3.21-4.31,3.21-.58,0-1-.26-1-.63,.03-.84,.08-1.5,.08-1.97,0-.21-.11-.37-.5-.37-1.6,0-2.29,2.68-4.13,2.68-.6,0-1.31-.39-1.31-.87,0-.55,.95-1.87,.95-3.79,0-.71-.24-.89-.55-.89l-1.34,.29c-.53,0-.79-.37-.79-.87,0-1.05,1.18-2.66,3.97-2.66,1.58,0,1.79,.58,1.79,.95,0,.71-.34,1.42-.34,1.81,0,.18,.08,.29,.29,.29,.6,0,1.92-1.26,3.02-1.26,.97,0,1.13,.6,1.13,1.18,0,.32-.05,.63-.05,.84,0,.16,.03,.26,.13,.26,.24,0,1.89-2.08,4.44-2.08,.92,0,1.47,.34,1.5,1.31,0,.47-.11,.97-.11,1.52,0,.74,.21,1.42,1.13,1.42,.26,0,.74-.16,1.05-.16,.29,0,.45,.21,.45,.5,0,.87-2.05,2.29-3.5,2.29Z"/><path class="d" d="M71.45,31.67c-1.55,0-3.02-.79-3.02-2.84,0-1.39,.5-4.47,1.26-5.63,.53-.29,2.13-.74,2.71-.74,.37,0,.55,.24,.55,.47,0,.42-1.1,2.79-1.1,3.86,0,.97,.45,1.84,1.52,1.84s.87-.55,1.63-.55c.34,0,.74,.11,.87,.6,0,1.6-2.37,2.97-4.42,2.97Zm-.18-11.75s-.97,0-.97-.6c.08-.47,.53-1.84,.92-2.63,.26-.5,.79-.66,1.39-.66,.55,0,1.66,.08,1.66,.79,0,.66-.39,2.94-3,3.1Z"/><path class="d" d="M78.73,18.39c-.74,0-1.31-.32-1.31-.95,0-.97,1.79-.45,1.79-1.58s-2-1.47-2-2.18c0-.37,.79-1.52,1.6-1.52,1.45,0,2.71,2.31,2.71,3.68,0,1.71-1.58,2.55-2.79,2.55Z"/><path class="d" d="M88.46,31.51c-2.13,0-3.1-1.03-3.1-1.79,0-.84,1.13-2.39,2.05-2.39,.71,0,.68,1.24,2.39,1.24,1.58,0,2.31-1,2.31-2s-.71-1.95-2.08-1.95c-.58,0-4.99,2.73-5.26,2.73-.63,0-1.03-.92-1.03-1.26,0-1.24,5.94-4.44,7.6-4.44,2.26,0,3.55,2,3.55,4.21,0,2.68-1.92,5.65-6.44,5.65Z"/><path class="d" d="M116.42,19.16c-.71,0-2.78-.53-2.78-2.04,0-.18,.06-.33,.27-.33,.24,0,.44,.18,.92,.18,2.45,0,7.04-2.57,7.04-5.47,0-1.33-1.15-1.63-2.42-1.63-6.24,0-13.25,9.26-13.25,14.93,0,2.51,1.36,4.35,4.82,4.35s5.26-1.95,6.86-1.95c1.01,0,2.72,1.03,2.72,2.01,0,1.06-5.03,3.43-9.91,3.43-6.53,0-9.32-3.31-9.32-7.54,0-7.36,8.4-17.48,19.58-17.48,4.38,0,6.06,1.15,6.06,3.28,0,3.4-5.29,8.16-10.59,8.25Z"/><path class="d" d="M148.21,25.67c0,2.26-3.1,6.07-7.96,6.07-2.97,0-4.23-1.26-4.23-2.94,0-.84,.32-1.76,.87-2.68-.45,.32-.95,.55-1.29,.63-.21,2.76-4,4.99-7.57,4.99-2.97,0-4.23-1.26-4.23-2.94,0-3.13,4.39-7.65,9.88-7.65,.29,0,.58,0,.87,.03,.37,.03,.5,.34,.5,.76,0,.74-.45,1.76-.87,1.89-3.29,.29-7.18,1.73-7.18,4.21,0,.55,.26,1.05,1.16,1.05,3.63,0,5.26-3.42,5.26-4.71,5.94,0,5.94-3.23,12.49-3.23,.29,0,.58,0,.87,.03,.37,.03,.5,.34,.5,.76,0,.74-.45,1.76-.87,1.89-3.29,.29-7.18,1.73-7.18,4.21,0,.55,.26,1.05,1.16,1.05,3.63,0,5.23-3.34,5.26-4.71,0-.11,.37-.37,.79-.37,1.21,0,1.79,.68,1.79,1.66Z"/><path class="d" d="M155.97,28.72c.03,.66,.26,.89,.63,.89,.84,0,2.31-1.29,2.89-1.29,.24,0,.71,.21,.71,.76-.03,1.37-1.71,3.05-3.94,3.05-1.68,0-2.81-1.39-2.81-3.02,0-.68,.63-1.42,1.29-1.71,1.08-.5,3.15-1.87,3.15-2.42,0-.13-.13-.24-.47-.24-.66,0-2.84,1.31-4,2.65-1.18,1.37-1.84,2.47-2.52,3.68-.13,.24-.5,.39-1,.39-.79-.13-1.92-.34-1.92-.71,0-4.36,2.86-16.38,3.6-18.11,.45-1.08,1.87-1.26,3.1-1.26,.32,0,1.03,.03,1.03,.34,0,.24-.21,.68-.34,1.1-.16,.58-3.39,9.57-3.65,12.35,0,.13,0,.29,.08,.29,.03,0,.05-.03,.08-.05,1.24-1.24,3.39-3.23,6.26-3.23,2,0,2.89,.82,2.89,1.92,0,1.58-1.87,3.68-5.05,4.6Z"/><path class="d" d="M164.59,31.67c-1.55,0-3.02-.79-3.02-2.84,0-1.39,.5-4.47,1.26-5.63,.53-.29,2.13-.74,2.71-.74,.37,0,.55,.24,.55,.47,0,.42-1.1,2.79-1.1,3.86,0,.97,.45,1.84,1.52,1.84s.87-.55,1.63-.55c.34,0,.74,.11,.87,.6,0,1.6-2.37,2.97-4.42,2.97Zm-.18-11.75s-.97,0-.97-.6c.08-.47,.53-1.84,.92-2.63,.26-.5,.79-.66,1.39-.66,.55,0,1.66,.08,1.66,.79,0,.66-.39,2.94-3,3.1Z"/><path class="d" d="M178.81,31.25c-1.63,0-1.71-1-1.71-2.94,0-.37-.08-.63-.55-.63-.55,0-3.73,2.94-4.1,3.26-.16,.13-.53,.37-1.03,.37-.53,0-1.24-.26-1.24-.89,0-.82,1.18-2.94,1.18-4.1,0-.55-.32-1-1.08-1-.6,0-1.21,.42-1.63,.42-.47,0-.71-.5-.71-.97,0,0,0-2.26,3.79-2.26,1.63,0,2.08,.66,2.08,1.42,0,.87-.53,1.87-.55,2.26,0,.13,.08,.24,.21,.24,.42,0,3.44-2.42,5.39-2.42,.92,0,1.81,.24,1.81,1.26,0,.97-.47,1.5-.47,2.37,0,.29,.05,.84,.68,.84,1.1,0,2.79-1.08,3.31-1.08,.34,0,.53,.29,.53,.66,0,1.29-3.44,3.21-5.91,3.21Z"/><path class="d" d="M198.76,32.46c-.18,1.05-1.1,1.13-2.08,1.37-.66,.16-1.34,.32-2.02,.5-2.76,6.91-7.6,10.07-10.83,10.07-1.92,0-3.29-1.1-3.29-3.23,0-4.02,6.23-7.2,11.43-8.91,.08-.58,.11-1.18,.11-1.81,0,0-2.63,1.16-4.84,1.16-1.63,0-3.02-.6-3.02-2.76,0-2.68,4.57-6.65,9.96-6.65,.66,.24,.71,.42,.71,.63,0,.6-.45,1.5-.63,1.73-.24,.34-.6,.63-1.08,.63-1.26,0-5.63,1.84-5.63,3.29,0,.29,.37,.42,.89,.42,1.45,0,4.18-.95,4.92-2.44,.11-.18,0-.42,1.37-.95,.47-.18,.82-.24,1.08-.24,.58,0,.82,.32,.82,.74v.13c-.18,1.84-.5,3.52-.92,5.07,1.1-.24,2-.39,2.55-.39,.39,0,.63,.16,.63,.66,0,.26-.05,.58-.13,1Zm-15.46,8.12c0,.89,.6,1.34,1.47,1.34,1.89,0,5.13-2.13,6.57-6.6-4.23,1.42-8.04,3.29-8.04,5.26Z"/><path class="d" d="M216.69,20.47c-.63,0-2.47-.47-2.47-1.81,0-.16,.05-.29,.24-.29,.21,0,.39,.16,.82,.16,2.18,0,6.26-2.29,6.26-4.86,0-1.18-1.03-1.45-2.16-1.45-5.55,0-11.78,8.23-11.78,13.27,0,2.23,1.21,3.86,4.28,3.86s4.68-1.73,6.1-1.73c.89,0,2.42,.92,2.42,1.79,0,.95-4.47,3.05-8.81,3.05-5.81,0-8.28-2.94-8.28-6.7,0-6.55,7.47-15.54,17.4-15.54,3.89,0,5.39,1.03,5.39,2.92,0,3.02-4.71,7.25-9.41,7.33Z"/><path class="d" d="M226.63,23.41c-.26,1.24-.42,2.39-.42,3.36,0,1.58,.42,2.63,1.52,2.63,.66,0,.97-.34,1.71-.34,.45,0,.55,.18,.55,.66,0,1.24-2.02,2.18-3.52,2.18-2.86,0-4.02-2.21-4.02-5.2,0-.84,.08-1.76,.26-2.71h-.21c-.76,0-1.05-.45-1.05-.84,0-.32,.18-.6,.53-.6l1.1-.16c1.5-5.68,5.47-11.75,9.31-11.75,2.68,0,3.84,1.29,3.84,3.08,0,3.23-3.81,8.04-9.59,9.7Zm4.49-10.3c-.84,0-2.71,3.94-3.89,7.94,3.6-1.79,4.94-4.6,4.94-6.34,0-.95-.39-1.6-1.05-1.6Z"/><path class="d" d="M249.87,31.51c-2.13,0-3.1-1.03-3.1-1.79,0-.84,1.13-2.39,2.05-2.39,.71,0,.68,1.24,2.39,1.24,1.58,0,2.31-1,2.31-2s-.71-1.95-2.08-1.95c-2.58,0-6.18,6.52-9.57,6.52-.84,0-1.26-.42-1.68-1.34-.03-.08-.08-.13-.16-.13-.42,0-2.63,1.97-6.36,1.97-2.5,0-3.52-1-3.52-2.37,0-2.97,4.89-7.73,9.75-7.73,.95,0,1.31,.42,1.31,.95,0,.92-1.1,2.16-2.1,2.16-2.1,0-5.36,2.37-5.36,3.52,0,.37,.34,.63,1.18,.63,1.55,0,4.36-1.55,6.57-3.6,.29-.26,.63-.45,.92-.45,.32,0,.55,.21,.55,.76,0,.76-.42,1.68-.42,2.26,0,.32,.13,.53,.55,.53,1.29,0,6.41-6.65,9.65-6.65,2.26,0,3.55,2,3.55,4.21,0,2.68-1.92,5.65-6.44,5.65Z"/><path class="d" d="M260.91,31.51c-2.13,0-3.1-1.03-3.1-1.79,0-.84,1.13-2.39,2.05-2.39,.71,0,.68,1.24,2.39,1.24,1.58,0,2.31-1,2.31-2s-.71-1.95-2.08-1.95c-.58,0-4.99,2.73-5.26,2.73-.63,0-1.02-.92-1.02-1.26,0-1.24,5.94-4.44,7.6-4.44,2.26,0,3.55,2,3.55,4.21,0,2.68-1.92,5.65-6.44,5.65Z"/></g></g></g></svg>