<?xml version="1.0" encoding="UTF-8"?><svg xmlns="http://www.w3.org/2000/svg" viewBox="0 0 192.24 192.24"><defs><style>.d{fill:#da121a;}.e{fill:#078930;}.f{fill:#fcdd09;stroke:#fcdd09;}</style></defs><g id="a"/><g id="b"><g id="c"><g><g><circle class="d" cx="96.12" cy="96.12" r="95.3"/><path class="d" d="M96.12,192.24C43.12,192.24,0,149.12,0,96.12S43.12,0,96.12,0s96.12,43.12,96.12,96.12-43.12,96.12-96.12,96.12ZM96.12,1.64C44.02,1.64,1.64,44.02,1.64,96.12s42.38,94.47,94.48,94.47,94.47-42.38,94.47-94.47S148.21,1.64,96.12,1.64Z"/></g><g><g><circle class="f" cx="96.12" cy="96.32" r="69.08"/><circle class="f" cx="96.12" cy="96.32" r="69.49"/><circle class="f" cx="96.12" cy="96.32" r="68.67"/></g><circle class="f" cx="96.12" cy="96.32" r="68.25"/></g><g><path class="e" d="M129.36,134.81c-5.86,0-10.65-2.98-10.65-10.97s7.46-29.94,7.46-33.35c0-.96-.43-1.7-1.38-1.7-7.35,0-25.46,28.66-28.02,35.48-.53,1.38-4.26,9.27-7.56,9.27-3.94,0-10.02-.11-10.02-3.41,0-3.09,15.98-41.66,15.98-51.78,0-.53-.21-.85-.64-.85-4.47,0-21.95,27.49-28.23,38.99-4.48,8.31-7.03,12.78-15.02,14.92-2.56,.64-4.79,.96-6.18,.96-2.34,0-3.2-.75-3.2-1.81,0-.32,.11-.75,.21-1.17,7.35-20.35,17.05-65.31,17.05-71.59,0-5.33-2.66-4.9-2.66-5.97,0-3.84,10.44-6.82,13.74-6.82,.43,0,.85,0,1.17,.11,3.3,.64,4.26,4.9,4.26,8.2,0,9.38-8.95,35.05-8.95,35.05,0,.11,.11,.21,.21,.21,.43,0,1.07-.43,1.81-1.49,5.22-8.31,23.65-34.94,36.54-34.94,5.01,0,6.6,4.05,6.6,8.63,0,12.36-7.67,27.91-7.67,29.09,0,.32,0,.53,.11,.53s.32-.11,.43-.21c5.01-5.22,23.44-26.74,33.35-26.74,3.62,0,6.39,1.28,6.39,5.97,0,10.01-12.57,42.51-12.57,48.48,0,2.24,.96,3.52,3.3,3.52,4.58,0,8.74-5.33,11.61-5.33,2.13,0,3.52,2.02,3.52,4.47,0,5.86-11.4,14.28-20.99,14.28Z"/><path class="e" d="M129.36,135.22c-7.03,0-11.06-4.15-11.06-11.38,0-5.12,2.74-15.04,4.95-23.01,1.35-4.86,2.51-9.06,2.51-10.34,0-.59-.17-1.29-.97-1.29-6.92,0-24.92,27.97-27.64,35.21-.04,.1-3.99,9.54-7.95,9.54-3.64,0-10.43,0-10.43-3.82,0-1.12,1.68-5.82,4.66-14.04,4.78-13.21,11.33-31.29,11.33-37.74,0-.44-.15-.44-.23-.44-.84,0-3.79,1.46-13.1,15-5.97,8.69-11.85,18.41-14.77,23.78-4.33,8.04-6.94,12.89-15.28,15.12-2.44,.61-4.79,.97-6.28,.97-2.98,0-3.61-1.21-3.61-2.22,0-.37,.11-.83,.22-1.27,7.19-19.91,17.03-65.15,17.03-71.5,0-3.47-1.14-4.31-1.89-4.86-.38-.28-.77-.57-.77-1.11,0-4.23,10.73-7.23,14.16-7.23,.45,0,.92,0,1.3,.13,4.21,.81,4.54,6.78,4.54,8.59,0,8.76-7.58,31.15-8.82,34.73,.25-.15,.64-.47,1.14-1.2,1.18-1.87,7.5-11.75,15.42-20.63,8.59-9.62,15.8-14.49,21.46-14.49,4.52,0,7.02,3.21,7.02,9.04,0,9.53-4.47,20.82-6.62,26.25-.44,1.12-.86,2.18-1,2.64,.58-.61,1.33-1.42,2.2-2.37,7.26-7.88,22.36-24.27,31.22-24.27,4.58,0,6.8,2.09,6.8,6.38,0,5.71-3.99,18.48-7.51,29.75-2.6,8.33-5.06,16.19-5.06,18.72,0,2.15,.89,3.11,2.89,3.11,2.43,0,4.8-1.62,6.89-3.05,1.78-1.22,3.32-2.27,4.72-2.27,2.28,0,3.93,2.05,3.93,4.89,0,5.93-11.27,14.69-21.4,14.69Zm-4.58-46.85c1.11,0,1.8,.81,1.8,2.12,0,1.39-1.12,5.43-2.54,10.56-2.19,7.92-4.92,17.78-4.92,22.79,0,9.19,6.42,10.56,10.24,10.56,9.54,0,20.58-8.39,20.58-13.87,0-2.35-1.31-4.06-3.1-4.06-1.14,0-2.66,1.04-4.26,2.13-2.19,1.5-4.67,3.2-7.35,3.2-2.46,0-3.71-1.32-3.71-3.93s2.36-10.22,5.1-18.97c3.5-11.21,7.47-23.92,7.47-29.51,0-3.84-1.85-5.56-5.98-5.56-8.5,0-24,16.82-30.62,24-.99,1.07-1.81,1.97-2.43,2.61-.17,.17-.49,.34-.72,.34-.52,0-.52-.57-.52-.94,0-.34,.28-1.07,1.1-3.14,2.13-5.38,6.57-16.57,6.57-25.94,0-3.75-1.07-8.22-6.19-8.22-11.34,0-28.09,21.84-36.2,34.75-.78,1.11-1.52,1.68-2.16,1.68-.33,0-.62-.29-.62-.62l.02-.14c.09-.26,8.93-25.72,8.93-34.92,0-3.4-1.03-7.24-3.93-7.8-.31-.1-.71-.1-1.09-.1-3.17,0-13.33,2.96-13.33,6.41,0,.11,.13,.21,.44,.44,.83,.61,2.23,1.63,2.23,5.52,0,6.55-9.68,51.27-17.07,71.73-.09,.36-.19,.76-.19,1.03,0,.93,.94,1.4,2.79,1.4,1.44,0,3.71-.35,6.08-.95,7.64-2.04,10.18-6.21,14.76-14.71,5.16-9.45,23.58-39.21,28.59-39.21,.51,0,1.05,.33,1.05,1.26,0,6.59-6.57,24.76-11.37,38.02-2.47,6.83-4.61,12.73-4.61,13.76,0,3,6.49,3,9.6,3,2.83,0,6.42-7.02,7.18-9.01,2.39-6.38,20.7-35.74,28.4-35.74Z"/></g></g></g></g></svg>